<svg width="24" height="24" viewBox="0 0 24 24" version="1.1" xmlns="http://www.w3.org/2000/svg" xmlns:xlink="http://www.w3.org/1999/xlink">
<title>Group</title>
<desc>Created using Figma</desc>
<g id="Canvas" transform="translate(-1459 38)">
<g id="Group">
<g id="Group">
<g id="Ellipse 2">
<mask id="mask0_outline_ins">
<use xlink:href="#path0_fill" fill="white" transform="matrix(-1 1.22465e-16 -1.22465e-16 -1 1483 -14)"/>
</mask>
<g mask="url(#mask0_outline_ins)">
<use xlink:href="#path1_stroke_2x" transform="matrix(-1 1.22465e-16 -1.22465e-16 -1 1483 -14)" fill="#FFFFFF"/>
</g>
</g>
</g>
<g id="Group">
<g id="Rectangle 10">
<use xlink:href="#path2_stroke" transform="matrix(-0.699119 0.715006 -0.699119 -0.715006 1474.78 -26)" fill="#FFFFFF"/>
</g>
<g id="Line 2">
<use xlink:href="#path3_stroke" transform="matrix(1 -2.47712e-16 2.42208e-16 1 1465 -26)" fill="#FFFFFF"/>
</g>
</g>
</g>
</g>
<defs>
<path id="path0_fill" d="M 24 12C 24 18.6274 18.6274 24 12 24C 5.37258 24 0 18.6274 0 12C 0 5.37258 5.37258 0 12 0C 18.6274 0 24 5.37258 24 12Z"/>
<path id="path1_stroke_2x" d="M 23 12C 23 18.0751 18.0751 23 12 23L 12 25C 19.1797 25 25 19.1797 25 12L 23 12ZM 12 23C 5.92487 23 1 18.0751 1 12L -1 12C -1 19.1797 4.8203 25 12 25L 12 23ZM 1 12C 1 5.92487 5.92487 1 12 1L 12 -1C 4.8203 -1 -1 4.8203 -1 12L 1 12ZM 12 1C 18.0751 1 23 5.92487 23 12L 25 12C 25 4.8203 19.1797 -1 12 -1L 12 1Z"/>
<path id="path2_stroke" d="M 6.99295 6.99295L 6.99295 7.49295L 7.49295 7.49295L 7.49295 6.99295L 6.99295 6.99295ZM 6.49295 0L 6.49295 6.99295L 7.49295 6.99295L 7.49295 0L 6.49295 0ZM 6.99295 6.49295L 0 6.49295L 0 7.49295L 6.99295 7.49295L 6.99295 6.49295Z"/>
<path id="path3_stroke" d="M 0 0.5L 11 0.5L 11 -0.5L 0 -0.5L 0 0.5Z"/>
</defs>
</svg>
