<svg width="24" height="24" viewBox="0 0 24 24" version="1.1" xmlns="http://www.w3.org/2000/svg" xmlns:xlink="http://www.w3.org/1999/xlink">
<title>btn-setting</title>
<desc>Created using Figma</desc>
<g id="Canvas" transform="translate(692 332)">
<g id="btn-setting">
<g id="Vector">
<use xlink:href="#path0_stroke" transform="translate(-683 -323)" fill="#FFFFFF"/>
</g>
<g id="Vector">
<use xlink:href="#path1_stroke" transform="translate(-691 -331)" fill="#FFFFFF"/>
</g>
</g>
</g>
<defs>
<path id="path0_stroke" d="M 5.5 3C 5.5 4.38071 4.38071 5.5 3 5.5L 3 6.5C 4.933 6.5 6.5 4.933 6.5 3L 5.5 3ZM 3 5.5C 1.61929 5.5 0.5 4.38071 0.5 3L -0.5 3C -0.5 4.933 1.067 6.5 3 6.5L 3 5.5ZM 0.5 3C 0.5 1.61929 1.61929 0.5 3 0.5L 3 -0.5C 1.067 -0.5 -0.5 1.067 -0.5 3L 0.5 3ZM 3 0.5C 4.38071 0.5 5.5 1.61929 5.5 3L 6.5 3C 6.5 1.067 4.933 -0.5 3 -0.5L 3 0.5Z"/>
<path id="path1_stroke" d="M 18.73 15.82L 18.3725 16.1697L 18.3765 16.1736L 18.73 15.82ZM 18.79 15.88L 18.4365 16.2336L 18.4366 16.2337L 18.79 15.88ZM 18.79 18.71L 18.4366 18.3562L 18.4363 18.3566L 18.79 18.71ZM 15.96 18.71L 16.3137 18.3566L 16.3136 18.3564L 15.96 18.71ZM 15.9 18.65L 16.2536 18.2964L 16.2496 18.2926L 15.9 18.65ZM 14.08 18.32L 14.277 18.7796L 14.2819 18.7774L 14.08 18.32ZM 13.08 19.83L 12.58 19.828L 12.58 19.83L 13.08 19.83ZM 9.08 19.91L 9.58014 19.91L 9.57986 19.8983L 9.08 19.91ZM 8 18.4L 7.79812 18.8574C 7.80775 18.8617 7.81752 18.8656 7.82741 18.8693L 8 18.4ZM 6.18 18.73L 5.83035 18.3725L 5.82644 18.3764L 6.18 18.73ZM 6.12 18.79L 5.76644 18.4365L 5.76625 18.4366L 6.12 18.79ZM 3.29 18.79L 3.64375 18.4366L 3.64336 18.4363L 3.29 18.79ZM 2.70343 17.375L 3.20343 17.375L 2.70343 17.375ZM 3.29 15.96L 3.64336 16.3137L 3.64355 16.3136L 3.29 15.96ZM 3.35 15.9L 3.70357 16.2536L 3.70743 16.2496L 3.35 15.9ZM 3.68 14.08L 3.2204 14.277L 3.22257 14.2819L 3.68 14.08ZM 2.17 13.08L 2.17199 12.58L 2.17 12.58L 2.17 13.08ZM 0 11.08L -0.5 11.08L 0 11.08ZM 2 9.08L 2 9.58L 2 9.08ZM 2.09 9.08L 2.09 9.58014L 2.10169 9.57986L 2.09 9.08ZM 3.6 8L 3.14257 7.79812C 3.13832 7.80775 3.13437 7.81752 3.13073 7.82741L 3.6 8ZM 3.27 6.18L 3.62745 5.83035L 3.62355 5.82645L 3.27 6.18ZM 3.21 6.12L 3.56355 5.76645L 3.56336 5.76625L 3.21 6.12ZM 3.21 3.29L 3.56336 3.64375L 3.56375 3.64336L 3.21 3.29ZM 6.04 3.29L 5.68625 3.64336L 5.68645 3.64355L 6.04 3.29ZM 6.1 3.35L 5.74643 3.70357L 5.75037 3.70743L 6.1 3.35ZM 7.92 3.68L 7.92 3.18C 7.85048 3.18 7.78172 3.1945 7.71812 3.22257L 7.92 3.68ZM 8 3.68L 8 4.18C 8.06772 4.18 8.13473 4.16624 8.19697 4.13957L 8 3.68ZM 9 2.17L 9.5 2.17199L 9.5 2.17L 9 2.17ZM 11 0L 11 -0.5L 11 0ZM 13 2.09L 12.5 2.09L 12.5 2.09199L 13 2.09ZM 14 3.6L 14.2019 3.14254L 14.197 3.14043L 14 3.6ZM 15.82 3.27L 16.1697 3.62745L 16.1736 3.62355L 15.82 3.27ZM 15.88 3.21L 16.2336 3.56355L 16.2337 3.56336L 15.88 3.21ZM 17.295 2.62343L 17.295 3.12343L 17.295 2.62343ZM 18.71 3.21L 18.3562 3.56336L 18.3566 3.56375L 18.71 3.21ZM 18.71 6.04L 18.3566 5.68625L 18.3564 5.68645L 18.71 6.04ZM 18.65 6.1L 18.2964 5.74643L 18.2926 5.75037L 18.65 6.1ZM 18.32 7.92L 18.82 7.92C 18.82 7.85048 18.8055 7.78172 18.7774 7.71812L 18.32 7.92ZM 18.32 8L 17.82 8C 17.82 8.06772 17.8338 8.13473 17.8604 8.19697L 18.32 8ZM 19.83 9L 19.828 9.5L 19.83 9.5L 19.83 9ZM 19.91 13L 19.91 12.5L 19.908 12.5L 19.91 13ZM 17.9426 13.7981C 17.7846 14.1698 17.7274 14.6515 17.794 15.0498L 18.778 14.8714C 18.7269 14.6209 18.7492 14.4335 18.8574 14.2019L 17.9426 13.7981ZM 17.794 15.0498C 17.8715 15.4461 18.0942 15.8771 18.3726 16.1696L 19.0874 15.4704C 18.9048 15.2915 18.8181 15.1239 18.778 14.8714L 17.794 15.0498ZM 18.3765 16.1736L 18.4365 16.2336L 19.1435 15.5264L 19.0835 15.4664L 18.3765 16.1736ZM 18.4366 16.2337C 18.5896 16.3831 18.6826 16.5222 18.7622 16.7206L 19.686 16.3376C 19.5644 16.0505 19.3623 15.7484 19.1434 15.5262L 18.4366 16.2337ZM 18.7622 16.7206C 18.8463 16.9172 18.879 17.0812 18.8766 17.295L 19.8766 17.295C 19.8742 16.9831 19.8032 16.6267 19.686 16.3376L 18.7622 16.7206ZM 18.8766 17.295C 18.879 17.5088 18.8463 17.6728 18.7622 17.8694L 19.686 18.2524C 19.8032 17.9633 19.8742 17.6069 19.8766 17.295L 18.8766 17.295ZM 18.7622 17.8694C 18.6826 18.0678 18.5896 18.2069 18.4366 18.3562L 19.1434 19.0637C 19.3623 18.8416 19.5644 18.5395 19.686 18.2524L 18.7622 17.8694ZM 18.4363 18.3566C 18.2869 18.5096 18.1478 18.6026 17.9494 18.6822L 18.3324 19.606C 18.6195 19.4844 18.9216 19.2823 19.1438 19.0634L 18.4363 18.3566ZM 17.9494 18.6822C 17.7528 18.7663 17.5888 18.799 17.375 18.7966L 17.375 19.7966C 17.6869 19.7942 18.0433 19.7232 18.3324 19.606L 17.9494 18.6822ZM 17.375 18.7966C 17.1612 18.799 16.9972 18.7663 16.8006 18.6822L 16.4176 19.606C 16.7067 19.7232 17.0631 19.7942 17.375 19.7966L 17.375 18.7966ZM 16.8006 18.6822C 16.6022 18.6026 16.4631 18.5096 16.3137 18.3566L 15.6062 19.0634C 15.8284 19.2823 16.1305 19.4844 16.4176 19.606L 16.8006 18.6822ZM 16.3136 18.3564L 16.2536 18.2964L 15.5464 19.0036L 15.6064 19.0636L 16.3136 18.3564ZM 16.2496 18.2926C 15.9571 18.0142 15.5261 17.7915 15.1298 17.714L 14.9514 18.698C 15.2039 18.7381 15.3715 18.8248 15.5504 19.0074L 16.2496 18.2926ZM 15.1298 17.714C 14.7315 17.6474 14.2498 17.7046 13.8781 17.8626L 14.2819 18.7774C 14.5135 18.6692 14.7009 18.6469 14.9514 18.698L 15.1298 17.714ZM 13.883 17.8604C 13.5228 18.0205 13.1595 18.3237 12.9374 18.6495L 13.7712 19.2016C 13.9045 18.9907 14.0456 18.873 14.277 18.7796L 13.883 17.8604ZM 12.9374 18.6495C 12.7242 18.981 12.5868 19.4339 12.58 19.828L 13.58 19.832C 13.5757 19.5826 13.6291 19.4067 13.7712 19.2016L 12.9374 18.6495ZM 12.58 19.83L 12.58 20L 13.58 20L 13.58 19.83L 12.58 19.83ZM 12.58 20C 12.58 20.3978 12.422 20.7794 12.1407 21.0607L 12.8478 21.7678C 13.3166 21.2989 13.58 20.663 13.58 20L 12.58 20ZM 12.1407 21.0607C 11.8594 21.342 11.4778 21.5 11.08 21.5L 11.08 22.5C 11.743 22.5 12.3789 22.2366 12.8478 21.7678L 12.1407 21.0607ZM 11.08 21.5C 10.6822 21.5 10.3006 21.342 10.0193 21.0607L 9.31223 21.7678C 9.78107 22.2366 10.417 22.5 11.08 22.5L 11.08 21.5ZM 10.0193 21.0607C 9.73804 20.7794 9.58 20.3978 9.58 20L 8.58 20C 8.58 20.663 8.84339 21.2989 9.31223 21.7678L 10.0193 21.0607ZM 9.58 20L 9.58 19.91L 8.58 19.91L 8.58 20L 9.58 20ZM 9.57986 19.8983C 9.56481 19.4931 9.41056 19.0309 9.1792 18.6978L 8.36583 19.2796C 8.51968 19.4851 8.5797 19.665 8.58014 19.9217L 9.57986 19.8983ZM 9.1792 18.6978C 8.93877 18.3713 8.55124 18.0759 8.17259 17.9307L 7.82741 18.8693C 8.07023 18.9526 8.22103 19.0676 8.36583 19.2796L 9.1792 18.6978ZM 8.20188 17.9426C 7.83025 17.7846 7.3485 17.7274 6.95021 17.794L 7.12862 18.778C 7.37911 18.7269 7.56652 18.7492 7.79812 18.8574L 8.20188 17.9426ZM 6.95021 17.794C 6.55388 17.8715 6.12288 18.0942 5.83037 18.3726L 6.52963 19.0874C 6.70848 18.9048 6.87615 18.8181 7.12862 18.778L 6.95021 17.794ZM 5.82644 18.3764L 5.76644 18.4365L 6.47356 19.1436L 6.53356 19.0835L 5.82644 18.3764ZM 5.76625 18.4366C 5.61687 18.5896 5.47783 18.6826 5.27941 18.7622L 5.66235 19.686C 5.94953 19.5644 6.25164 19.3623 6.47375 19.1434L 5.76625 18.4366ZM 5.27941 18.7622C 5.08284 18.8463 4.91879 18.879 4.705 18.8766L 4.705 19.8766C 5.01687 19.8742 5.37333 19.8032 5.66235 19.686L 5.27941 18.7622ZM 4.705 18.8766C 4.49121 18.879 4.32716 18.8463 4.13059 18.7622L 3.74765 19.686C 4.03667 19.8032 4.39313 19.8742 4.705 19.8766L 4.705 18.8766ZM 4.13059 18.7622C 3.93217 18.6826 3.79313 18.5896 3.64375 18.4366L 2.93625 19.1434C 3.15836 19.3623 3.46047 19.5644 3.74765 19.686L 4.13059 18.7622ZM 3.64336 18.4363C 3.4904 18.2869 3.39741 18.1478 3.31777 17.9494L 2.39399 18.3324C 2.51565 18.6195 2.7177 18.9216 2.93664 19.1438L 3.64336 18.4363ZM 3.31777 17.9494C 3.23367 17.7528 3.20102 17.5888 3.20343 17.375L 2.20343 17.375C 2.20584 17.6869 2.27679 18.0433 2.39399 18.3324L 3.31777 17.9494ZM 3.20343 17.375C 3.20102 17.1612 3.23367 16.9972 3.31777 16.8006L 2.39399 16.4176C 2.27679 16.7067 2.20584 17.0631 2.20343 17.375L 3.20343 17.375ZM 3.31777 16.8006C 3.39741 16.6022 3.4904 16.4631 3.64336 16.3137L 2.93664 15.6062C 2.7177 15.8284 2.51565 16.1305 2.39399 16.4176L 3.31777 16.8006ZM 3.64355 16.3136L 3.70355 16.2536L 2.99645 15.5464L 2.93645 15.6064L 3.64355 16.3136ZM 3.70743 16.2496C 3.98584 15.9571 4.20851 15.5261 4.28598 15.1298L 3.30203 14.9514C 3.26186 15.2039 3.17524 15.3715 2.99257 15.5504L 3.70743 16.2496ZM 4.28598 15.1298C 4.35259 14.7315 4.29541 14.2498 4.13743 13.8781L 3.22257 14.2819C 3.33082 14.5135 3.35306 14.7009 3.30203 14.9514L 4.28598 15.1298ZM 4.13957 13.883C 3.97946 13.5228 3.67626 13.1595 3.35054 12.9374L 2.79839 13.7712C 3.00925 13.9045 3.12701 14.0456 3.22043 14.277L 4.13957 13.883ZM 3.35054 12.9374C 3.01901 12.7242 2.56612 12.5868 2.17199 12.58L 2.16801 13.58C 2.41745 13.5757 2.59334 13.6291 2.79839 13.7712L 3.35054 12.9374ZM 2.17 12.58L 2 12.58L 2 13.58L 2.17 13.58L 2.17 12.58ZM 2 12.58C 1.60218 12.58 1.22064 12.422 0.93934 12.1407L 0.232233 12.8478C 0.701074 13.3166 1.33696 13.58 2 13.58L 2 12.58ZM 0.93934 12.1407C 0.658035 11.8594 0.5 11.4778 0.5 11.08L -0.5 11.08C -0.5 11.743 -0.236608 12.3789 0.232233 12.8478L 0.93934 12.1407ZM 0.5 11.08C 0.5 10.6822 0.658035 10.3006 0.93934 10.0193L 0.232233 9.31223C -0.236608 9.78107 -0.5 10.417 -0.5 11.08L 0.5 11.08ZM 0.93934 10.0193C 1.22064 9.73804 1.60218 9.58 2 9.58L 2 8.58C 1.33696 8.58 0.701074 8.84339 0.232233 9.31223L 0.93934 10.0193ZM 2 9.58L 2.09 9.58L 2.09 8.58L 2 8.58L 2 9.58ZM 2.10169 9.57986C 2.50694 9.56481 2.96912 9.41056 3.30217 9.1792L 2.72043 8.36583C 2.51489 8.51968 2.33504 8.5797 2.07831 8.58014L 2.10169 9.57986ZM 3.30217 9.1792C 3.62875 8.93877 3.92407 8.55124 4.06927 8.17259L 3.13073 7.82741C 3.04736 8.07023 2.93244 8.22103 2.72043 8.36583L 3.30217 9.1792ZM 4.05743 8.20188C 4.21541 7.83025 4.27259 7.3485 4.20598 6.95021L 3.22203 7.12862C 3.27306 7.37911 3.25082 7.56652 3.14257 7.79812L 4.05743 8.20188ZM 4.20598 6.95021C 4.12851 6.55388 3.90584 6.12288 3.62743 5.83037L 2.91257 6.52963C 3.09524 6.70848 3.18186 6.87615 3.22203 7.12862L 4.20598 6.95021ZM 3.62355 5.82645L 3.56355 5.76645L 2.85645 6.47355L 2.91645 6.53355L 3.62355 5.82645ZM 3.56336 5.76625C 3.4104 5.61687 3.31741 5.47783 3.23777 5.27941L 2.31399 5.66235C 2.43565 5.94953 2.6377 6.25164 2.85664 6.47375L 3.56336 5.76625ZM 3.23777 5.27941C 3.15367 5.08284 3.12102 4.91879 3.12343 4.705L 2.12343 4.705C 2.12584 5.01687 2.19679 5.37333 2.31399 5.66235L 3.23777 5.27941ZM 3.12343 4.705C 3.12102 4.49121 3.15367 4.32716 3.23777 4.13059L 2.31399 3.74765C 2.19679 4.03667 2.12584 4.39313 2.12343 4.705L 3.12343 4.705ZM 3.23777 4.13059C 3.31741 3.93217 3.4104 3.79313 3.56336 3.64375L 2.85664 2.93625C 2.6377 3.15836 2.43565 3.46047 2.31399 3.74765L 3.23777 4.13059ZM 3.56375 3.64336C 3.71313 3.4904 3.85217 3.39741 4.05059 3.31777L 3.66765 2.39399C 3.38047 2.51565 3.07836 2.7177 2.85625 2.93664L 3.56375 3.64336ZM 4.05059 3.31777C 4.24716 3.23367 4.41121 3.20102 4.625 3.20343L 4.625 2.20343C 4.31313 2.20584 3.95667 2.27679 3.66765 2.39399L 4.05059 3.31777ZM 4.625 3.20343C 4.83879 3.20102 5.00284 3.23367 5.19941 3.31777L 5.58235 2.39399C 5.29333 2.27679 4.93687 2.20584 4.625 2.20343L 4.625 3.20343ZM 5.19941 3.31777C 5.39783 3.39741 5.53687 3.4904 5.68625 3.64336L 6.39375 2.93664C 6.17164 2.7177 5.86953 2.51565 5.58235 2.39399L 5.19941 3.31777ZM 5.68645 3.64355L 5.74645 3.70355L 6.45355 2.99645L 6.39355 2.93645L 5.68645 3.64355ZM 5.75037 3.70743C 6.04288 3.98584 6.47388 4.20851 6.87021 4.28598L 7.04862 3.30203C 6.79615 3.26186 6.62848 3.17524 6.44963 2.99257L 5.75037 3.70743ZM 6.87021 4.28598C 7.2685 4.35259 7.75025 4.29541 8.12188 4.13743L 7.71812 3.22257C 7.48652 3.33082 7.29911 3.35306 7.04862 3.30203L 6.87021 4.28598ZM 7.92 4.18L 8 4.18L 8 3.18L 7.92 3.18L 7.92 4.18ZM 8.19697 4.13957C 8.55717 3.97946 8.92055 3.67626 9.14257 3.35054L 8.30882 2.79839C 8.17549 3.00925 8.03436 3.12701 7.80303 3.22043L 8.19697 4.13957ZM 9.14257 3.35054C 9.35581 3.01901 9.49316 2.56612 9.5 2.17199L 8.5 2.16801C 8.50427 2.41745 8.45093 2.59334 8.30882 2.79839L 9.14257 3.35054ZM 9.5 2.17L 9.5 2L 8.5 2L 8.5 2.17L 9.5 2.17ZM 9.5 2C 9.5 1.60218 9.65804 1.22064 9.93934 0.93934L 9.23223 0.232233C 8.76339 0.701074 8.5 1.33696 8.5 2L 9.5 2ZM 9.93934 0.93934C 10.2206 0.658035 10.6022 0.5 11 0.5L 11 -0.5C 10.337 -0.5 9.70107 -0.236608 9.23223 0.232233L 9.93934 0.93934ZM 11 0.5C 11.3978 0.5 11.7794 0.658035 12.0607 0.93934L 12.7678 0.232233C 12.2989 -0.236608 11.663 -0.5 11 -0.5L 11 0.5ZM 12.0607 0.93934C 12.342 1.22064 12.5 1.60218 12.5 2L 13.5 2C 13.5 1.33696 13.2366 0.701074 12.7678 0.232233L 12.0607 0.93934ZM 12.5 2L 12.5 2.09L 13.5 2.09L 13.5 2L 12.5 2ZM 12.5 2.09199C 12.5068 2.48612 12.6442 2.93901 12.8574 3.27054L 13.6912 2.71839C 13.5491 2.51334 13.4957 2.33745 13.5 2.08801L 12.5 2.09199ZM 12.8574 3.27054C 13.0795 3.59626 13.4428 3.89946 13.803 4.05957L 14.197 3.14043C 13.9656 3.04701 13.8245 2.92925 13.6912 2.71839L 12.8574 3.27054ZM 13.7981 4.05743C 14.1698 4.21541 14.6515 4.27259 15.0498 4.20598L 14.8714 3.22203C 14.6209 3.27306 14.4335 3.25082 14.2019 3.14257L 13.7981 4.05743ZM 15.0498 4.20598C 15.4461 4.12851 15.8771 3.90584 16.1696 3.62743L 15.4704 2.91257C 15.2915 3.09524 15.1239 3.18186 14.8714 3.22203L 15.0498 4.20598ZM 16.1736 3.62355L 16.2336 3.56355L 15.5264 2.85645L 15.4664 2.91645L 16.1736 3.62355ZM 16.2337 3.56336C 16.3831 3.4104 16.5222 3.31741 16.7206 3.23777L 16.3376 2.31399C 16.0505 2.43565 15.7484 2.6377 15.5262 2.85664L 16.2337 3.56336ZM 16.7206 3.23777C 16.9172 3.15367 17.0812 3.12102 17.295 3.12343L 17.295 2.12343C 16.9831 2.12584 16.6267 2.19679 16.3376 2.31399L 16.7206 3.23777ZM 17.295 3.12343C 17.5088 3.12102 17.6728 3.15367 17.8694 3.23777L 18.2524 2.31399C 17.9633 2.19679 17.6069 2.12584 17.295 2.12343L 17.295 3.12343ZM 17.8694 3.23777C 18.0678 3.31741 18.2069 3.4104 18.3562 3.56336L 19.0637 2.85664C 18.8416 2.6377 18.5395 2.43565 18.2524 2.31399L 17.8694 3.23777ZM 18.3566 3.56375C 18.5096 3.71313 18.6026 3.85218 18.6822 4.05059L 19.606 3.66765C 19.4843 3.38047 19.2823 3.07836 19.0634 2.85625L 18.3566 3.56375ZM 18.6822 4.05059C 18.7663 4.24716 18.799 4.41121 18.7966 4.625L 19.7966 4.625C 19.7942 4.31313 19.7232 3.95667 19.606 3.66765L 18.6822 4.05059ZM 18.7966 4.625C 18.799 4.83879 18.7663 5.00284 18.6822 5.19941L 19.606 5.58235C 19.7232 5.29333 19.7942 4.93687 19.7966 4.625L 18.7966 4.625ZM 18.6822 5.19941C 18.6026 5.39782 18.5096 5.53687 18.3566 5.68625L 19.0634 6.39375C 19.2823 6.17164 19.4843 5.86953 19.606 5.58235L 18.6822 5.19941ZM 18.3564 5.68645L 18.2964 5.74645L 19.0036 6.45355L 19.0636 6.39355L 18.3564 5.68645ZM 18.2926 5.75037C 18.0142 6.04288 17.7915 6.47388 17.714 6.87021L 18.698 7.04862C 18.7381 6.79615 18.8248 6.62848 19.0074 6.44963L 18.2926 5.75037ZM 17.714 6.87021C 17.6474 7.2685 17.7046 7.75025 17.8626 8.12188L 18.7774 7.71812C 18.6692 7.48652 18.6469 7.29911 18.698 7.04862L 17.714 6.87021ZM 17.82 7.92L 17.82 8L 18.82 8L 18.82 7.92L 17.82 7.92ZM 17.8604 8.19697C 18.0205 8.55717 18.3237 8.92055 18.6495 9.14257L 19.2016 8.30882C 18.9907 8.17549 18.873 8.03436 18.7796 7.80303L 17.8604 8.19697ZM 18.6495 9.14257C 18.981 9.35581 19.4339 9.49316 19.828 9.5L 19.832 8.5C 19.5826 8.50427 19.4067 8.45093 19.2016 8.30882L 18.6495 9.14257ZM 19.83 9.5L 20 9.5L 20 8.5L 19.83 8.5L 19.83 9.5ZM 20 9.5C 20.3978 9.5 20.7794 9.65804 21.0607 9.93934L 21.7678 9.23223C 21.2989 8.76339 20.663 8.5 20 8.5L 20 9.5ZM 21.0607 9.93934C 21.342 10.2206 21.5 10.6022 21.5 11L 22.5 11C 22.5 10.337 22.2366 9.70107 21.7678 9.23223L 21.0607 9.93934ZM 21.5 11C 21.5 11.3978 21.342 11.7794 21.0607 12.0607L 21.7678 12.7678C 22.2366 12.2989 22.5 11.663 22.5 11L 21.5 11ZM 21.0607 12.0607C 20.7794 12.342 20.3978 12.5 20 12.5L 20 13.5C 20.663 13.5 21.2989 13.2366 21.7678 12.7678L 21.0607 12.0607ZM 20 12.5L 19.91 12.5L 19.91 13.5L 20 13.5L 20 12.5ZM 19.908 12.5C 19.5139 12.5068 19.061 12.6442 18.7295 12.8574L 19.2816 13.6912C 19.4867 13.5491 19.6625 13.4957 19.912 13.5L 19.908 12.5ZM 18.7295 12.8574C 18.4037 13.0795 18.1005 13.4428 17.9404 13.803L 18.8596 14.197C 18.953 13.9656 19.0707 13.8245 19.2816 13.6912L 18.7295 12.8574Z"/>
</defs>
</svg>
