<svg width="26" height="20" viewBox="0 0 26 20" version="1.1" xmlns="http://www.w3.org/2000/svg" xmlns:xlink="http://www.w3.org/1999/xlink">
<title>btn-arrow</title>
<desc>Created using Figma</desc>
<g id="Canvas" transform="translate(537 -212)">
<g id="btn-arrow">
<g id="Vector">
<use xlink:href="#path0_stroke" transform="translate(-536 222)" fill="#FFFFFF"/>
</g>
<g id="Vector">
<use xlink:href="#path1_stroke" transform="translate(-536 213)" fill="#FFFFFF"/>
</g>
</g>
</g>
<defs>
<path id="path0_stroke" d="M 24 0.5C 24.2761 0.5 24.5 0.276142 24.5 0C 24.5 -0.276142 24.2761 -0.5 24 -0.5L 24 0.5ZM 0 -0.5C -0.276142 -0.5 -0.5 -0.276142 -0.5 0C -0.5 0.276142 -0.276142 0.5 0 0.5L 0 -0.5ZM 24 -0.5L 0 -0.5L 0 0.5L 24 0.5L 24 -0.5Z"/>
<path id="path1_stroke" d="M 8.64645 18.3536C 8.84171 18.5488 9.15829 18.5488 9.35355 18.3536C 9.54881 18.1583 9.54881 17.8417 9.35355 17.6464L 8.64645 18.3536ZM 0 9L -0.353553 8.64645C -0.548816 8.84171 -0.548816 9.15829 -0.353553 9.35355L 0 9ZM 9.35355 0.353553C 9.54881 0.158291 9.54881 -0.158291 9.35355 -0.353553C 9.15829 -0.548816 8.84171 -0.548816 8.64645 -0.353553L 9.35355 0.353553ZM 9.35355 17.6464L 0.353553 8.64645L -0.353553 9.35355L 8.64645 18.3536L 9.35355 17.6464ZM 0.353553 9.35355L 9.35355 0.353553L 8.64645 -0.353553L -0.353553 8.64645L 0.353553 9.35355Z"/>
</defs>
</svg>
