<svg width="24" height="24" viewBox="0 0 24 24" version="1.1" xmlns="http://www.w3.org/2000/svg" xmlns:xlink="http://www.w3.org/1999/xlink">
<title>Group</title>
<desc>Created using Figma</desc>
<g id="Canvas" transform="translate(-1059 233)">
<g id="Group">
<g id="Group">
<g id="Vector">
<use xlink:href="#path0_fill" transform="translate(1059 -233)" fill="#FFFFFF"/>
</g>
</g>
</g>
</g>
<defs>
<path id="path0_fill" d="M 12 1C 12.6 1 13.2 1.1 13.8 1.2L 14 2.7L 14.1 3.3L 14.7 3.5C 15.1 3.6 15.6 3.8 16.1 4.1L 16.6 4.4L 17.1 4L 18.4 3C 18.9 3.4 19.4 3.8 19.8 4.2C 20.2 4.6 20.6 5.1 21 5.6L 20.1 6.8L 19.7 7.3L 20 7.9C 20.2 8.3 20.4 8.8 20.6 9.3L 20.8 9.9L 21.4 10L 22.9 10.2C 23 10.8 23.1 11.4 23.1 12C 23.1 12.6 23 13.2 22.9 13.8L 21.4 14L 20.8 14.1L 20.6 14.7C 20.5 15.1 20.3 15.6 20 16.1L 19.7 16.6L 20.1 17.1L 21 18.3C 20.6 18.8 20.2 19.3 19.8 19.7C 19.4 20.1 18.9 20.5 18.4 20.9L 17.2 20L 16.7 19.6L 16.1 20C 15.6 20.2 15.2 20.4 14.7 20.6L 14.1 20.8L 14 21.4L 13.8 22.9C 13.2 22.9 12.6 23 12 23C 11.4 23 10.8 22.9 10.2 22.8L 10 21.3L 9.9 20.7L 9.3 20.5C 8.9 20.4 8.4 20.2 7.9 19.9L 7.4 19.6L 6.9 20L 5.6 21C 5.1 20.6 4.6 20.2 4.2 19.8C 3.8 19.4 3.4 18.9 3 18.4L 3.9 17.2L 4.3 16.7L 4 16.1C 3.8 15.7 3.6 15.2 3.4 14.7L 3.2 14.1L 2.6 14L 1.1 13.8C 1.1 13.2 1 12.6 1 12C 1 11.4 1.1 10.8 1.2 10.2L 2.7 10L 3.3 9.9L 3.5 9.3C 3.6 8.8 3.8 8.3 4 7.9L 4.3 7.4L 3.9 6.9L 3 5.6C 3.4 5.1 3.8 4.6 4.2 4.2C 4.6 3.8 5.1 3.4 5.6 3L 6.8 3.9L 7.3 4.3L 7.9 4C 8.3 3.8 8.8 3.6 9.3 3.4L 9.9 3.2L 10 2.6L 10.2 1.1C 10.8 1.1 11.4 1 12 1ZM 12 18C 15.3 18 18 15.3 18 12C 18 8.7 15.3 6 12 6C 8.7 6 6 8.7 6 12C 6 15.3 8.7 18 12 18ZM 12 0C 11.1 0 10.2 0.1 9.3 0.3L 8.9 2.5C 8.4 2.7 7.9 2.9 7.4 3.1L 5.6 1.8C 4.8 2.3 4.1 2.8 3.5 3.5C 2.9 4.2 2.3 4.9 1.8 5.6L 3.1 7.4C 2.9 7.9 2.6 8.4 2.5 8.9L 0.3 9.3C 0.1 10.2 0 11.1 0 12C 0 12.9 0.1 13.8 0.3 14.7L 2.5 15.1C 2.7 15.6 2.9 16.1 3.1 16.6L 1.8 18.4C 2.3 19.2 2.8 19.9 3.5 20.5C 4.2 21.2 4.9 21.7 5.6 22.2L 7.4 20.9C 7.9 21.1 8.4 21.4 8.9 21.5L 9.3 23.7C 10.2 23.9 11.1 24 12 24C 12.9 24 13.8 23.9 14.7 23.7L 15.1 21.5C 15.6 21.3 16.1 21.1 16.6 20.9L 18.4 22.2C 19.2 21.7 19.9 21.2 20.5 20.5C 21.1 19.8 21.7 19.1 22.2 18.4L 20.9 16.6C 21.1 16.1 21.4 15.6 21.5 15.1L 23.7 14.7C 23.9 13.8 24 12.9 24 12C 24 11.1 23.9 10.2 23.7 9.3L 21.5 8.9C 21.3 8.4 21.1 7.9 20.9 7.4L 22.2 5.6C 21.7 4.8 21.2 4.1 20.5 3.5C 19.8 2.8 19.1 2.3 18.4 1.8L 16.6 3.1C 16.1 2.9 15.6 2.6 15.1 2.5L 14.7 0.3C 13.8 0.1 12.9 0 12 0ZM 12 17C 9.2 17 7 14.8 7 12C 7 9.2 9.2 7 12 7C 14.8 7 17 9.2 17 12C 17 14.8 14.8 17 12 17Z"/>
</defs>
</svg>
