<svg width="34" height="34" viewBox="0 0 34 34" version="1.1" xmlns="http://www.w3.org/2000/svg" xmlns:xlink="http://www.w3.org/1999/xlink">
<title>Group 7</title>
<desc>Created using Figma</desc>
<g id="Canvas" transform="translate(-3459 -825)">
<g id="Group 7">
<g id="Group 6">
<g id="Group 5">
<g id="Rectangle 2.1">
<mask id="mask0_outline_ins">
<use xlink:href="#path0_fill" fill="white" transform="translate(3463.56 829.556)"/>
</mask>
<g mask="url(#mask0_outline_ins)">
<use xlink:href="#path1_stroke_2x" transform="translate(3463.56 829.556)" fill="#FFFFFF"/>
</g>
</g>
<g id="Rectangle 2.4">
<use xlink:href="#path2_fill" transform="translate(3467.11 833.111)" fill="#FFFFFF"/>
<mask id="mask1_outline_ins">
<use xlink:href="#path2_fill" fill="white" transform="translate(3467.11 833.111)"/>
</mask>
<g mask="url(#mask1_outline_ins)">
<use xlink:href="#path3_stroke_2x" transform="translate(3467.11 833.111)" fill="#FFFFFF"/>
</g>
</g>
</g>
<g id="Group 5.2">
<g id="Rectangle 2.1">
<mask id="mask2_outline_ins">
<use xlink:href="#path0_fill" fill="white" transform="translate(3463.56 843.778)"/>
</mask>
<g mask="url(#mask2_outline_ins)">
<use xlink:href="#path1_stroke_2x" transform="translate(3463.56 843.778)" fill="#FFFFFF"/>
</g>
</g>
<g id="Rectangle 2.4">
<use xlink:href="#path2_fill" transform="translate(3467.11 847.333)" fill="#FFFFFF"/>
<mask id="mask3_outline_ins">
<use xlink:href="#path2_fill" fill="white" transform="translate(3467.11 847.333)"/>
</mask>
<g mask="url(#mask3_outline_ins)">
<use xlink:href="#path3_stroke_2x" transform="translate(3467.11 847.333)" fill="#FFFFFF"/>
</g>
</g>
</g>
<g id="Group 5.1">
<g id="Rectangle 2.1">
<mask id="mask4_outline_ins">
<use xlink:href="#path0_fill" fill="white" transform="translate(3477.78 829.556)"/>
</mask>
<g mask="url(#mask4_outline_ins)">
<use xlink:href="#path1_stroke_2x" transform="translate(3477.78 829.556)" fill="#FFFFFF"/>
</g>
</g>
<g id="Rectangle 2.4">
<use xlink:href="#path2_fill" transform="translate(3481.33 833.111)" fill="#FFFFFF"/>
<mask id="mask5_outline_ins">
<use xlink:href="#path2_fill" fill="white" transform="translate(3481.33 833.111)"/>
</mask>
<g mask="url(#mask5_outline_ins)">
<use xlink:href="#path3_stroke_2x" transform="translate(3481.33 833.111)" fill="#FFFFFF"/>
</g>
</g>
</g>
</g>
<g id="Vector">
<use xlink:href="#path4_stroke" transform="translate(3460 826)" fill="#FFFFFF"/>
</g>
<g id="Vector">
<use xlink:href="#path4_stroke" transform="matrix(6.12323e-17 1 -1 6.12323e-17 3492 826)" fill="#FFFFFF"/>
</g>
<g id="Vector">
<use xlink:href="#path4_stroke" transform="matrix(-1 1.22465e-16 -1.22465e-16 -1 3492 858)" fill="#FFFFFF"/>
</g>
<g id="Vector">
<use xlink:href="#path4_stroke" transform="matrix(-1.83697e-16 -1 1 -1.83697e-16 3460 858)" fill="#FFFFFF"/>
</g>
</g>
</g>
<defs>
<path id="path0_fill" d="M 0 0L 10.6667 0L 10.6667 10.6667L 0 10.6667L 0 0Z"/>
<path id="path1_stroke_2x" d="M 0 0L 0 -2L -2 -2L -2 0L 0 0ZM 10.6667 0L 12.6667 0L 12.6667 -2L 10.6667 -2L 10.6667 0ZM 10.6667 10.6667L 10.6667 12.6667L 12.6667 12.6667L 12.6667 10.6667L 10.6667 10.6667ZM 0 10.6667L -2 10.6667L -2 12.6667L 0 12.6667L 0 10.6667ZM 0 2L 10.6667 2L 10.6667 -2L 0 -2L 0 2ZM 8.66667 0L 8.66667 10.6667L 12.6667 10.6667L 12.6667 0L 8.66667 0ZM 10.6667 8.66667L 0 8.66667L 0 12.6667L 10.6667 12.6667L 10.6667 8.66667ZM 2 10.6667L 2 0L -2 0L -2 10.6667L 2 10.6667Z"/>
<path id="path2_fill" d="M 0 0L 3.55556 0L 3.55556 3.55556L 0 3.55556L 0 0Z"/>
<path id="path3_stroke_2x" d="M 0 0L 0 -2L -2 -2L -2 0L 0 0ZM 3.55556 0L 5.55556 0L 5.55556 -2L 3.55556 -2L 3.55556 0ZM 3.55556 3.55556L 3.55556 5.55556L 5.55556 5.55556L 5.55556 3.55556L 3.55556 3.55556ZM 0 3.55556L -2 3.55556L -2 5.55556L 0 5.55556L 0 3.55556ZM 0 2L 3.55556 2L 3.55556 -2L 0 -2L 0 2ZM 1.55556 0L 1.55556 3.55556L 5.55556 3.55556L 5.55556 0L 1.55556 0ZM 3.55556 1.55556L 0 1.55556L 0 5.55556L 3.55556 5.55556L 3.55556 1.55556ZM 2 3.55556L 2 0L -2 0L -2 3.55556L 2 3.55556Z"/>
<path id="path4_stroke" d="M 1 7.11111L 1 2L -1 2L -1 7.11111L 1 7.11111ZM 2 1L 7.11111 1L 7.11111 -1L 2 -1L 2 1ZM 1 2C 1 1.44772 1.44772 1 2 1L 2 -1C 0.343146 -1 -1 0.343146 -1 2L 1 2Z"/>
</defs>
</svg>
