<svg width="36" height="36" viewBox="0 0 36 36" version="1.1" xmlns="http://www.w3.org/2000/svg" xmlns:xlink="http://www.w3.org/1999/xlink">
<title>Group</title>
<desc>Created using Figma</desc>
<g id="Canvas" transform="translate(-816 365)">
<g id="Group">
<g id="Ellipse 2">
<mask id="mask0_outline_ins">
<use xlink:href="#path0_fill" fill="white" transform="translate(816 -365)"/>
</mask>
<g mask="url(#mask0_outline_ins)">
<use xlink:href="#path1_stroke_2x" transform="translate(816 -365)" fill="#FFFFFF"/>
</g>
</g>
<g id="Ellipse 2">
<mask id="mask1_outline_ins">
<use xlink:href="#path2_fill" fill="white" transform="translate(828.808 -356)"/>
</mask>
<g mask="url(#mask1_outline_ins)">
<use xlink:href="#path3_stroke_2x" transform="translate(828.808 -356)" fill="#FFFFFF"/>
</g>
</g>
<g id="Ellipse 2">
<use xlink:href="#path4_stroke" transform="translate(826.5 -345.984)" fill="#FFFFFF"/>
</g>
</g>
</g>
<defs>
<path id="path0_fill" d="M 36 18C 36 27.9411 27.9411 36 18 36C 8.05887 36 0 27.9411 0 18C 0 8.05887 8.05887 0 18 0C 27.9411 0 36 8.05887 36 18Z"/>
<path id="path1_stroke_2x" d="M 35 18C 35 27.3888 27.3888 35 18 35L 18 37C 28.4934 37 37 28.4934 37 18L 35 18ZM 18 35C 8.61116 35 1 27.3888 1 18L -1 18C -1 28.4934 7.50659 37 18 37L 18 35ZM 1 18C 1 8.61116 8.61116 1 18 1L 18 -1C 7.50659 -1 -1 7.50659 -1 18L 1 18ZM 18 1C 27.3888 1 35 8.61116 35 18L 37 18C 37 7.50659 28.4934 -1 18 -1L 18 1Z"/>
<path id="path2_fill" d="M 10.3846 5.00806C 10.3846 7.77394 8.05994 10.0161 5.19231 10.0161C 2.32468 10.0161 0 7.77394 0 5.00806C 0 2.24219 2.32468 0 5.19231 0C 8.05994 0 10.3846 2.24219 10.3846 5.00806Z"/>
<path id="path3_stroke_2x" d="M 9.38461 5.00806C 9.38461 7.18791 7.54202 9.01613 5.19231 9.01613L 5.19231 11.0161C 8.57786 11.0161 11.3846 8.35997 11.3846 5.00806L 9.38461 5.00806ZM 5.19231 9.01613C 2.8426 9.01613 1 7.18791 1 5.00806L -1 5.00806C -1 8.35997 1.80675 11.0161 5.19231 11.0161L 5.19231 9.01613ZM 1 5.00806C 1 2.82822 2.8426 1 5.19231 1L 5.19231 -1C 1.80675 -1 -1 1.65616 -1 5.00806L 1 5.00806ZM 5.19231 1C 7.54202 1 9.38461 2.82822 9.38461 5.00806L 11.3846 5.00806C 11.3846 1.65616 8.57786 -1 5.19231 -1L 5.19231 1Z"/>
<path id="path4_stroke" d="M 0.5 7.23387C 0.5 3.53173 3.61683 0.5 7.5 0.5L 7.5 -0.5C 3.0989 -0.5 -0.5 2.9457 -0.5 7.23387L 0.5 7.23387ZM 7.5 0.5C 11.3832 0.5 14.5 3.53173 14.5 7.23387L 15.5 7.23387C 15.5 2.9457 11.9011 -0.5 7.5 -0.5L 7.5 0.5Z"/>
</defs>
</svg>
