<svg width="41" height="34" viewBox="0 0 41 34" version="1.1" xmlns="http://www.w3.org/2000/svg" xmlns:xlink="http://www.w3.org/1999/xlink">
<title>ico-send</title>
<desc>Created using Figma</desc>
<g id="Canvas" transform="translate(741 113)">
<g id="ico-send">
<g id="Vector">
<use xlink:href="#path0_stroke" transform="translate(-740 -112)" fill="url(#paint0_linear)"/>
</g>
<g id="Vector 2">
<use xlink:href="#path1_stroke" transform="translate(-740 -106)" fill="url(#paint1_linear)"/>
</g>
<g id="Vector 3">
<use xlink:href="#path2_stroke" transform="matrix(1 -2.44929e-16 2.44929e-16 1 -720.6 -92.8)" fill="url(#paint2_linear)"/>
</g>
<g id="Vector 4">
<use xlink:href="#path3_stroke" transform="matrix(1 -2.44929e-16 2.44929e-16 1 -740 -86)" fill="url(#paint3_linear)"/>
</g>
</g>
</g>
<defs>
<linearGradient id="paint0_linear" x1="0" y1="0" x2="1" y2="0" gradientUnits="userSpaceOnUse" gradientTransform="matrix(1.8982e-15 15 -31 9.18485e-16 31 -9.18485e-16)">
<stop offset="0" stop-color="#FF9500"/>
<stop offset="1" stop-color="#FDBC00"/>
</linearGradient>
<linearGradient id="paint1_linear" x1="0" y1="0" x2="1" y2="0" gradientUnits="userSpaceOnUse" gradientTransform="matrix(1.95943e-15 26 -32 1.59204e-15 32 -1.59204e-15)">
<stop offset="0" stop-color="#FF9500"/>
<stop offset="1" stop-color="#FDBC00"/>
</linearGradient>
<linearGradient id="paint2_linear" x1="0" y1="0" x2="1" y2="0" gradientUnits="userSpaceOnUse" gradientTransform="matrix(1.17566e-15 0 -19.2 0 19.2 0)">
<stop offset="0" stop-color="#FF9500"/>
<stop offset="1" stop-color="#FDBC00"/>
</linearGradient>
<linearGradient id="paint3_linear" x1="0" y1="0" x2="1" y2="0" gradientUnits="userSpaceOnUse" gradientTransform="matrix(1.8982e-15 0 -31 0 31 0)">
<stop offset="0" stop-color="#FF9500"/>
<stop offset="1" stop-color="#FDBC00"/>
</linearGradient>
<path id="path0_stroke" d="M 0.5 15L 0.5 5L -0.5 5L -0.5 15L 0.5 15ZM 5 0.5L 31 0.5L 31 -0.5L 5 -0.5L 5 0.5ZM 0.5 5C 0.5 2.51472 2.51472 0.5 5 0.5L 5 -0.5C 1.96243 -0.5 -0.5 1.96243 -0.5 5L 0.5 5Z"/>
<path id="path1_stroke" d="M 32.5 7.72973L 32.5 5L 31.5 5L 31.5 7.72973L 32.5 7.72973ZM 27 -0.5L 5 -0.5L 5 0.5L 27 0.5L 27 -0.5ZM -0.5 5L -0.5 21L 0.5 21L 0.5 5L -0.5 5ZM 5 26.5L 27 26.5L 27 25.5L 5 25.5L 5 26.5ZM 32.5 21L 32.5 18.2703L 31.5 18.2703L 31.5 21L 32.5 21ZM 32.5 5C 32.5 1.96243 30.0376 -0.5 27 -0.5L 27 0.5C 29.4853 0.5 31.5 2.51472 31.5 5L 32.5 5ZM 5 -0.5C 1.96243 -0.5 -0.5 1.96243 -0.5 5L 0.5 5C 0.5 2.51472 2.51472 0.5 5 0.5L 5 -0.5ZM -0.5 21C -0.5 24.0376 1.96243 26.5 5 26.5L 5 25.5C 2.51472 25.5 0.5 23.4853 0.5 21L -0.5 21ZM 27 26.5C 30.0376 26.5 32.5 24.0376 32.5 21L 31.5 21C 31.5 23.4853 29.4853 25.5 27 25.5L 27 26.5Z"/>
<path id="path2_stroke" d="M 19.5536 0.353553C 19.7488 0.158291 19.7488 -0.158291 19.5536 -0.353553L 16.3716 -3.53553C 16.1763 -3.7308 15.8597 -3.7308 15.6645 -3.53553C 15.4692 -3.34027 15.4692 -3.02369 15.6645 -2.82843L 18.4929 0L 15.6645 2.82843C 15.4692 3.02369 15.4692 3.34027 15.6645 3.53553C 15.8597 3.7308 16.1763 3.7308 16.3716 3.53553L 19.5536 0.353553ZM 0 0.5L 19.2 0.5L 19.2 -0.5L 0 -0.5L 0 0.5Z"/>
<path id="path3_stroke" d="M 31 0.5C 31.2761 0.5 31.5 0.276142 31.5 0C 31.5 -0.276142 31.2761 -0.5 31 -0.5L 31 0.5ZM 0 0.5L 2.06667 0.5L 2.06667 -0.5L 0 -0.5L 0 0.5ZM 4.13333 0.5L 8.26667 0.5L 8.26667 -0.5L 4.13333 -0.5L 4.13333 0.5ZM 10.3333 0.5L 14.4667 0.5L 14.4667 -0.5L 10.3333 -0.5L 10.3333 0.5ZM 16.5333 0.5L 20.6667 0.5L 20.6667 -0.5L 16.5333 -0.5L 16.5333 0.5ZM 22.7333 0.5L 26.8667 0.5L 26.8667 -0.5L 22.7333 -0.5L 22.7333 0.5ZM 28.9333 0.5L 31 0.5L 31 -0.5L 28.9333 -0.5L 28.9333 0.5Z"/>
</defs>
</svg>
