<svg width="43" height="34" viewBox="0 0 43 34" version="1.1" xmlns="http://www.w3.org/2000/svg" xmlns:xlink="http://www.w3.org/1999/xlink">
<title>ico-uppw</title>
<desc>Created using Figma</desc>
<g id="Canvas" transform="translate(895 113)">
<g id="ico-uppw">
<g id="ico-uppw">
<g id="Vector">
<use xlink:href="#path0_stroke" transform="translate(-880 -96.7)" fill="url(#paint0_linear)"/>
</g>
<g id="Vector">
<use xlink:href="#path1_stroke" transform="translate(-877.111 -103)" fill="url(#paint1_linear)"/>
</g>
</g>
<g id="refresh-cw">
<g id="Vector">
<use xlink:href="#path2_stroke" transform="translate(-861 -107)" fill="url(#paint2_linear)"/>
</g>
<g id="Vector">
<use xlink:href="#path3_stroke" transform="translate(-894 -93)" fill="url(#paint3_linear)"/>
</g>
<g id="Vector">
<use xlink:href="#path4_stroke" transform="translate(-893 -112)" fill="url(#paint4_linear)"/>
</g>
</g>
</g>
</g>
<defs>
<linearGradient id="paint0_linear" x1="0" y1="0" x2="1" y2="0" gradientUnits="userSpaceOnUse" gradientTransform="matrix(7.9602e-16 7.7 -13 4.71489e-16 13 -4.71489e-16)">
<stop offset="0" stop-color="#FF9500"/>
<stop offset="1" stop-color="#FDBC00"/>
</linearGradient>
<linearGradient id="paint1_linear" x1="0" y1="0" x2="1" y2="0" gradientUnits="userSpaceOnUse" gradientTransform="matrix(4.42234e-16 6.3 -7.22222 3.85764e-16 7.22222 -3.85764e-16)">
<stop offset="0" stop-color="#FF9500"/>
<stop offset="1" stop-color="#FDBC00"/>
</linearGradient>
<linearGradient id="paint2_linear" x1="0" y1="0" x2="1" y2="0" gradientUnits="userSpaceOnUse" gradientTransform="matrix(4.89859e-16 8 -8 4.89859e-16 8 -4.89859e-16)">
<stop offset="0" stop-color="#FF9500"/>
<stop offset="1" stop-color="#FDBC00"/>
</linearGradient>
<linearGradient id="paint3_linear" x1="0" y1="0" x2="1" y2="0" gradientUnits="userSpaceOnUse" gradientTransform="matrix(4.89859e-16 8 -8 4.89859e-16 8 -4.89859e-16)">
<stop offset="0" stop-color="#FF9500"/>
<stop offset="1" stop-color="#FDBC00"/>
</linearGradient>
<linearGradient id="paint4_linear" x1="0" y1="0" x2="1" y2="0" gradientUnits="userSpaceOnUse" gradientTransform="matrix(2.39549e-15 32 -39.1214 1.95943e-15 39.1214 -1.95943e-15)">
<stop offset="0" stop-color="#FF9500"/>
<stop offset="1" stop-color="#FDBC00"/>
</linearGradient>
<path id="path0_stroke" d="M 1.44444 0.5L 11.5556 0.5L 11.5556 -0.5L 1.44444 -0.5L 1.44444 0.5ZM 11.5556 0.5C 12.092 0.5 12.5 0.917558 12.5 1.4L 13.5 1.4C 13.5 0.336044 12.6146 -0.5 11.5556 -0.5L 11.5556 0.5ZM 12.5 1.4L 12.5 6.3L 13.5 6.3L 13.5 1.4L 12.5 1.4ZM 12.5 6.3C 12.5 6.78244 12.092 7.2 11.5556 7.2L 11.5556 8.2C 12.6146 8.2 13.5 7.36396 13.5 6.3L 12.5 6.3ZM 11.5556 7.2L 1.44444 7.2L 1.44444 8.2L 11.5556 8.2L 11.5556 7.2ZM 1.44444 7.2C 0.907997 7.2 0.5 6.78244 0.5 6.3L -0.5 6.3C -0.5 7.36396 0.385402 8.2 1.44444 8.2L 1.44444 7.2ZM 0.5 6.3L 0.5 1.4L -0.5 1.4L -0.5 6.3L 0.5 6.3ZM 0.5 1.4C 0.5 0.917558 0.907997 0.5 1.44444 0.5L 1.44444 -0.5C 0.385402 -0.5 -0.5 0.336044 -0.5 1.4L 0.5 1.4Z"/>
<path id="path1_stroke" d="M -0.5 6.3C -0.5 6.57614 -0.276142 6.8 0 6.8C 0.276142 6.8 0.5 6.57614 0.5 6.3L -0.5 6.3ZM 0 3.5L -0.5 3.5L 0 3.5ZM 6.16455 1.02513L 5.81657 1.38416L 6.16455 1.02513ZM 6.72222 6.3C 6.72222 6.57614 6.94608 6.8 7.22222 6.8C 7.49836 6.8 7.72222 6.57614 7.72222 6.3L 6.72222 6.3ZM 0.5 6.3L 0.5 3.5L -0.5 3.5L -0.5 6.3L 0.5 6.3ZM 0.5 3.5C 0.5 2.70948 0.823855 1.94806 1.40566 1.38416L 0.709683 0.666092C -0.062945 1.41495 -0.5 2.434 -0.5 3.5L 0.5 3.5ZM 1.40566 1.38416C 1.98799 0.819746 2.78104 0.5 3.61111 0.5L 3.61111 -0.5C 2.52573 -0.5 1.48178 -0.0822478 0.709683 0.666092L 1.40566 1.38416ZM 3.61111 0.5C 4.44118 0.5 5.23423 0.819746 5.81657 1.38416L 6.51254 0.666092C 5.74044 -0.0822478 4.69649 -0.5 3.61111 -0.5L 3.61111 0.5ZM 5.81657 1.38416C 6.39837 1.94806 6.72222 2.70948 6.72222 3.5L 7.72222 3.5C 7.72222 2.434 7.28517 1.41495 6.51254 0.666092L 5.81657 1.38416ZM 6.72222 3.5L 6.72222 6.3L 7.72222 6.3L 7.72222 3.5L 6.72222 3.5Z"/>
<path id="path2_stroke" d="M 8.5 0C 8.5 -0.276142 8.27614 -0.5 8 -0.5C 7.72386 -0.5 7.5 -0.276142 7.5 0L 8.5 0ZM 8 8L 8 8.5C 8.27614 8.5 8.5 8.27614 8.5 8L 8 8ZM 0 7.5C -0.276142 7.5 -0.5 7.72386 -0.5 8C -0.5 8.27614 -0.276142 8.5 0 8.5L 0 7.5ZM 7.5 0L 7.5 8L 8.5 8L 8.5 0L 7.5 0ZM 8 7.5L 0 7.5L 0 8.5L 8 8.5L 8 7.5Z"/>
<path id="path3_stroke" d="M -0.5 8C -0.5 8.27614 -0.276142 8.5 0 8.5C 0.276142 8.5 0.5 8.27614 0.5 8L -0.5 8ZM 0 0L 0 -0.5C -0.276142 -0.5 -0.5 -0.276142 -0.5 1.11022e-16L 0 0ZM 8 0.5C 8.27614 0.5 8.5 0.276142 8.5 0C 8.5 -0.276142 8.27614 -0.5 8 -0.5L 8 0.5ZM 0.5 8L 0.5 0L -0.5 0L -0.5 8L 0.5 8ZM 0 0.5L 8 0.5L 8 -0.5L 0 -0.5L 0 0.5Z"/>
<path id="path4_stroke" d="M 3.99204 10.4985C 3.89992 10.7588 4.03627 11.0445 4.2966 11.1366C 4.55692 11.2287 4.84263 11.0924 4.93475 10.8321L 3.99204 10.4985ZM 30.8703 4.69036L 30.5167 5.04383C 30.5204 5.04752 30.5241 5.05116 30.528 5.05474L 30.8703 4.69036ZM 38.779 12.8079C 38.9802 12.997 39.2967 12.9871 39.4858 12.7859C 39.6749 12.5847 39.665 12.2682 39.4638 12.0791L 38.779 12.8079ZM 0.342388 19.1921C 0.141149 19.003 -0.175281 19.0129 -0.364376 19.2141C -0.553472 19.4153 -0.543628 19.7318 -0.342388 19.9209L 0.342388 19.1921ZM 8.25106 27.3096L 8.6047 26.9562C 8.60101 26.9525 8.59725 26.9488 8.59345 26.9453L 8.25106 27.3096ZM 15.1236 31.3698L 14.9847 31.8501L 15.1236 31.3698ZM 35.1294 21.5015C 35.2215 21.2412 35.0851 20.9555 34.8248 20.8634C 34.5645 20.7713 34.2788 20.9076 34.1866 21.1679L 35.1294 21.5015ZM 4.93475 10.8321C 5.81192 8.34138 7.27455 6.16705 9.2509 4.41576L 8.58656 3.66833C 6.52155 5.50904 4.91861 7.89194 3.99204 10.4985L 4.93475 10.8321ZM 9.2509 4.41576C 11.222 2.65855 13.5529 1.46113 16.1293 0.882252L 15.9086 -0.0930937C 13.2114 0.521256 10.6568 1.83354 8.58656 3.66833L 9.2509 4.41576ZM 16.1293 0.882252C 18.7039 0.295639 21.3233 0.372999 23.8588 1.11053L 24.1367 0.149914C 21.4782 -0.614928 18.6076 -0.699709 15.9086 -0.0930937L 16.1293 0.882252ZM 23.8588 1.11053C 26.3966 1.84045 28.6528 3.17335 30.5167 5.04383L 31.224 4.3369C 29.2656 2.38313 26.793 0.922373 24.1367 0.149914L 23.8588 1.11053ZM 30.528 5.05474L 38.779 12.8079L 39.4638 12.0791L 31.2127 4.32598L 30.528 5.05474ZM -0.342388 19.9209L 7.90867 27.674L 8.59345 26.9453L 0.342388 19.1921L -0.342388 19.9209ZM 7.89742 27.6631C 9.85581 29.6169 12.3284 31.0776 14.9847 31.8501L 15.2626 30.8895C 12.7248 30.1595 10.4686 28.8267 8.6047 26.9562L 7.89742 27.6631ZM 14.9847 31.8501C 17.6432 32.6149 20.5138 32.6997 23.2128 32.0931L 22.9921 31.1178C 20.4175 31.7044 17.7981 31.627 15.2626 30.8895L 14.9847 31.8501ZM 23.2128 32.0931C 25.91 31.4787 28.4645 30.1665 30.5348 28.3317L 29.8705 27.5842C 27.8994 29.3414 25.5685 30.5389 22.9921 31.1178L 23.2128 32.0931ZM 30.5348 28.3317C 32.5998 26.491 34.2028 24.1081 35.1294 21.5015L 34.1866 21.1679C 33.3095 23.6586 31.8468 25.8329 29.8705 27.5842L 30.5348 28.3317Z"/>
</defs>
</svg>
