<svg width="48" height="48" viewBox="0 0 48 48" version="1.1" xmlns="http://www.w3.org/2000/svg" xmlns:xlink="http://www.w3.org/1999/xlink">
<title>ico-withd</title>
<desc>Created using Figma</desc>
<g id="Canvas" transform="translate(-3155 -728)">
<g id="ico-withd">
<g id="Rectangle 2">
<mask id="mask0_outline_ins">
<use xlink:href="#path0_fill" fill="white" transform="translate(3155 728)"/>
</mask>
<g mask="url(#mask0_outline_ins)">
<use xlink:href="#path1_stroke_2x" transform="translate(3155 728)" fill="#FFFFFF"/>
</g>
</g>
<g id="Group 5">
<g id="Rectangle 2.1">
<mask id="mask1_outline_ins">
<use xlink:href="#path2_fill" fill="white" transform="translate(3165 738)"/>
</mask>
<g mask="url(#mask1_outline_ins)">
<use xlink:href="#path3_stroke_2x" transform="translate(3165 738)" fill="#FFFFFF"/>
</g>
</g>
<g id="Rectangle 2.4">
<use xlink:href="#path4_fill" transform="translate(3169 742)" fill="#FFFFFF"/>
<mask id="mask2_outline_ins">
<use xlink:href="#path4_fill" fill="white" transform="translate(3169 742)"/>
</mask>
<g mask="url(#mask2_outline_ins)">
<use xlink:href="#path5_stroke_2x" transform="translate(3169 742)" fill="#FFFFFF"/>
</g>
</g>
</g>
<g id="Group 5.2">
<g id="Rectangle 2.1">
<mask id="mask3_outline_ins">
<use xlink:href="#path2_fill" fill="white" transform="translate(3165 754)"/>
</mask>
<g mask="url(#mask3_outline_ins)">
<use xlink:href="#path3_stroke_2x" transform="translate(3165 754)" fill="#FFFFFF"/>
</g>
</g>
<g id="Rectangle 2.4">
<use xlink:href="#path4_fill" transform="translate(3169 758)" fill="#FFFFFF"/>
<mask id="mask4_outline_ins">
<use xlink:href="#path4_fill" fill="white" transform="translate(3169 758)"/>
</mask>
<g mask="url(#mask4_outline_ins)">
<use xlink:href="#path5_stroke_2x" transform="translate(3169 758)" fill="#FFFFFF"/>
</g>
</g>
</g>
<g id="Group 5.1">
<g id="Rectangle 2.1">
<mask id="mask5_outline_ins">
<use xlink:href="#path2_fill" fill="white" transform="translate(3181 738)"/>
</mask>
<g mask="url(#mask5_outline_ins)">
<use xlink:href="#path3_stroke_2x" transform="translate(3181 738)" fill="#FFFFFF"/>
</g>
</g>
<g id="Rectangle 2.4">
<use xlink:href="#path4_fill" transform="translate(3185 742)" fill="#FFFFFF"/>
<mask id="mask6_outline_ins">
<use xlink:href="#path4_fill" fill="white" transform="translate(3185 742)"/>
</mask>
<g mask="url(#mask6_outline_ins)">
<use xlink:href="#path5_stroke_2x" transform="translate(3185 742)" fill="#FFFFFF"/>
</g>
</g>
</g>
</g>
</g>
<defs>
<path id="path0_fill" d="M 0 24C 0 10.7452 10.7452 0 24 0C 37.2548 0 48 10.7452 48 24C 48 37.2548 37.2548 48 24 48C 10.7452 48 0 37.2548 0 24Z"/>
<path id="path1_stroke_2x" d="M 24 -1C 10.1929 -1 -1 10.1929 -1 24L 1 24C 1 11.2975 11.2975 1 24 1L 24 -1ZM 24 1C 36.7025 1 47 11.2975 47 24L 49 24C 49 10.1929 37.8071 -1 24 -1L 24 1ZM 47 24C 47 36.7025 36.7025 47 24 47L 24 49C 37.8071 49 49 37.8071 49 24L 47 24ZM 24 47C 11.2975 47 1 36.7025 1 24L -1 24C -1 37.8071 10.1929 49 24 49L 24 47Z"/>
<path id="path2_fill" d="M 0 2C 0 0.895431 0.895431 0 2 0L 10 0C 11.1046 0 12 0.895431 12 2L 12 10C 12 11.1046 11.1046 12 10 12L 2 12C 0.895431 12 0 11.1046 0 10L 0 2Z"/>
<path id="path3_stroke_2x" d="M 2 1L 10 1L 10 -1L 2 -1L 2 1ZM 11 2L 11 10L 13 10L 13 2L 11 2ZM 10 11L 2 11L 2 13L 10 13L 10 11ZM 1 10L 1 2L -1 2L -1 10L 1 10ZM 2 -1C 0.343146 -1 -1 0.343146 -1 2L 1 2C 1 1.44772 1.44772 1 2 1L 2 -1ZM 10 1C 10.5523 1 11 1.44772 11 2L 13 2C 13 0.343146 11.6569 -1 10 -1L 10 1ZM 11 10C 11 10.5523 10.5523 11 10 11L 10 13C 11.6569 13 13 11.6569 13 10L 11 10ZM 2 11C 1.44772 11 1 10.5523 1 10L -1 10C -1 11.6569 0.343146 13 2 13L 2 11Z"/>
<path id="path4_fill" d="M 0 0L 4 0L 4 4L 0 4L 0 0Z"/>
<path id="path5_stroke_2x" d="M 0 0L 0 -1L -1 -1L -1 0L 0 0ZM 4 0L 5 0L 5 -1L 4 -1L 4 0ZM 4 4L 4 5L 5 5L 5 4L 4 4ZM 0 4L -1 4L -1 5L 0 5L 0 4ZM 0 1L 4 1L 4 -1L 0 -1L 0 1ZM 3 0L 3 4L 5 4L 5 0L 3 0ZM 4 3L 0 3L 0 5L 4 5L 4 3ZM 1 4L 1 0L -1 0L -1 4L 1 4Z"/>
</defs>
</svg>
