<svg width="31" height="34" viewBox="0 0 31 34" version="1.1" xmlns="http://www.w3.org/2000/svg" xmlns:xlink="http://www.w3.org/1999/xlink">
<title>ico-uppw</title>
<desc>Created using Figma</desc>
<g id="Canvas" transform="translate(888 113)">
<g id="ico-uppw">
<g id="Vector">
<use xlink:href="#path0_stroke" transform="translate(-887 -97.6)" fill="url(#paint0_linear)"/>
</g>
<g id="Vector">
<use xlink:href="#path1_stroke" transform="translate(-880.6 -112)" fill="url(#paint1_linear)"/>
</g>
</g>
</g>
<defs>
<linearGradient id="paint0_linear" x1="0" y1="0" x2="1" y2="0" gradientUnits="userSpaceOnUse" gradientTransform="matrix(1.76349e-15 17.6 -28.8 1.07769e-15 28.8 -1.07769e-15)">
<stop offset="0" stop-color="#FF9500"/>
<stop offset="1" stop-color="#FDBC00"/>
</linearGradient>
<linearGradient id="paint1_linear" x1="0" y1="0" x2="1" y2="0" gradientUnits="userSpaceOnUse" gradientTransform="matrix(9.79717e-16 14.4 -16 8.81746e-16 16 -8.81746e-16)">
<stop offset="0" stop-color="#FF9500"/>
<stop offset="1" stop-color="#FDBC00"/>
</linearGradient>
<path id="path0_stroke" d="M 3.2 0.5L 25.6 0.5L 25.6 -0.5L 3.2 -0.5L 3.2 0.5ZM 25.6 0.5C 27.0912 0.5 28.3 1.70883 28.3 3.2L 29.3 3.2C 29.3 1.15655 27.6435 -0.5 25.6 -0.5L 25.6 0.5ZM 28.3 3.2L 28.3 14.4L 29.3 14.4L 29.3 3.2L 28.3 3.2ZM 28.3 14.4C 28.3 15.8912 27.0912 17.1 25.6 17.1L 25.6 18.1C 27.6435 18.1 29.3 16.4435 29.3 14.4L 28.3 14.4ZM 25.6 17.1L 3.2 17.1L 3.2 18.1L 25.6 18.1L 25.6 17.1ZM 3.2 17.1C 1.70883 17.1 0.5 15.8912 0.5 14.4L -0.5 14.4C -0.5 16.4435 1.15655 18.1 3.2 18.1L 3.2 17.1ZM 0.5 14.4L 0.5 3.2L -0.5 3.2L -0.5 14.4L 0.5 14.4ZM 0.5 3.2C 0.5 1.70883 1.70883 0.5 3.2 0.5L 3.2 -0.5C 1.15655 -0.5 -0.5 1.15655 -0.5 3.2L 0.5 3.2Z"/>
<path id="path1_stroke" d="M -0.5 14.4C -0.5 14.6761 -0.276142 14.9 0 14.9C 0.276142 14.9 0.5 14.6761 0.5 14.4L -0.5 14.4ZM 0 8L -0.5 8L 0 8ZM 8 -2.84217e-15L 8 -0.5L 8 -2.84217e-15ZM 15.5 14.4C 15.5 14.6761 15.7239 14.9 16 14.9C 16.2761 14.9 16.5 14.6761 16.5 14.4L 15.5 14.4ZM 0.5 14.4L 0.5 8L -0.5 8L -0.5 14.4L 0.5 14.4ZM 0.5 8C 0.5 6.01088 1.29018 4.10322 2.6967 2.6967L 1.98959 1.98959C 0.395533 3.58365 -0.5 5.74566 -0.5 8L 0.5 8ZM 2.6967 2.6967C 4.10322 1.29018 6.01088 0.5 8 0.5L 8 -0.5C 5.74566 -0.5 3.58365 0.395533 1.98959 1.98959L 2.6967 2.6967ZM 8 0.5C 9.98912 0.5 11.8968 1.29018 13.3033 2.6967L 14.0104 1.98959C 12.4163 0.395533 10.2543 -0.5 8 -0.5L 8 0.5ZM 13.3033 2.6967C 14.7098 4.10322 15.5 6.01088 15.5 8L 16.5 8C 16.5 5.74566 15.6045 3.58365 14.0104 1.98959L 13.3033 2.6967ZM 15.5 8L 15.5 14.4L 16.5 14.4L 16.5 8L 15.5 8Z"/>
</defs>
</svg>
