<svg width="18" height="20" viewBox="0 0 18 20" version="1.1" xmlns="http://www.w3.org/2000/svg" xmlns:xlink="http://www.w3.org/1999/xlink">
<title>ico-profile</title>
<desc>Created using Figma</desc>
<g id="Canvas" transform="translate(926 330)">
<g id="ico-profile">
<g id="Vector">
<use xlink:href="#path0_stroke" transform="translate(-925 -317)" fill="#FFFFFF"/>
</g>
<g id="Vector">
<use xlink:href="#path1_stroke" transform="translate(-921 -329)" fill="#FFFFFF"/>
</g>
</g>
</g>
<defs>
<path id="path0_stroke" d="M 15.5 6C 15.5 6.27614 15.7239 6.5 16 6.5C 16.2761 6.5 16.5 6.27614 16.5 6L 15.5 6ZM 12 1.77636e-15L 12 -0.5L 12 1.77636e-15ZM 4 1.77636e-15L 4 -0.5L 4 1.77636e-15ZM 8.88178e-16 4L -0.5 4L 8.88178e-16 4ZM -0.5 6C -0.5 6.27614 -0.276142 6.5 8.88178e-16 6.5C 0.276142 6.5 0.5 6.27614 0.5 6L -0.5 6ZM 16.5 6L 16.5 4L 15.5 4L 15.5 6L 16.5 6ZM 16.5 4C 16.5 2.80653 16.0259 1.66193 15.182 0.81802L 14.4749 1.52513C 15.1313 2.1815 15.5 3.07174 15.5 4L 16.5 4ZM 15.182 0.81802C 14.3381 -0.0258932 13.1935 -0.5 12 -0.5L 12 0.5C 12.9283 0.5 13.8185 0.868749 14.4749 1.52513L 15.182 0.81802ZM 12 -0.5L 4 -0.5L 4 0.5L 12 0.5L 12 -0.5ZM 4 -0.5C 2.80653 -0.5 1.66193 -0.0258933 0.818019 0.81802L 1.52513 1.52513C 2.1815 0.86875 3.07174 0.5 4 0.5L 4 -0.5ZM 0.818019 0.81802C -0.0258944 1.66193 -0.5 2.80653 -0.5 4L 0.5 4C 0.5 3.07174 0.868749 2.1815 1.52513 1.52513L 0.818019 0.81802ZM -0.5 4L -0.5 6L 0.5 6L 0.5 4L -0.5 4Z"/>
<path id="path1_stroke" d="M 7.5 4C 7.5 5.933 5.933 7.5 4 7.5L 4 8.5C 6.48528 8.5 8.5 6.48528 8.5 4L 7.5 4ZM 4 7.5C 2.067 7.5 0.5 5.933 0.5 4L -0.5 4C -0.5 6.48528 1.51472 8.5 4 8.5L 4 7.5ZM 0.5 4C 0.5 2.067 2.067 0.5 4 0.5L 4 -0.5C 1.51472 -0.5 -0.5 1.51472 -0.5 4L 0.5 4ZM 4 0.5C 5.933 0.5 7.5 2.067 7.5 4L 8.5 4C 8.5 1.51472 6.48528 -0.5 4 -0.5L 4 0.5Z"/>
</defs>
</svg>
