<svg width="32" height="32" viewBox="0 0 32 32" version="1.1" xmlns="http://www.w3.org/2000/svg" xmlns:xlink="http://www.w3.org/1999/xlink">
<title>ico-send</title>
<desc>Created using Figma</desc>
<g id="Canvas" transform="translate(-1257 -528)">
<g id="ico-send">
<g id="Group 3">
<g id="Vector 2">
<use xlink:href="#path0_stroke" transform="translate(1273.75 540)" fill="#FFFFFF"/>
</g>
<g id="Vector">
<use xlink:href="#path1_stroke" transform="matrix(1 -2.59497e-16 2.31179e-16 1 1267 544.5)" fill="#FFFFFF"/>
</g>
</g>
<g id="Ellipse 6.2">
<mask id="mask0_outline_ins">
<use xlink:href="#path2_fill" fill="white" transform="translate(1257 528)"/>
</mask>
<g mask="url(#mask0_outline_ins)">
<use xlink:href="#path3_stroke_2x" transform="translate(1257 528)" fill="#FFFFFF"/>
</g>
</g>
<g id="Ellipse 6.3">
<mask id="mask1_outline_ins">
<use xlink:href="#path4_fill" fill="white" transform="translate(1260 531)"/>
</mask>
<g mask="url(#mask1_outline_ins)">
<use xlink:href="#path5_stroke_2x" transform="translate(1260 531)" fill="#FFFFFF"/>
</g>
</g>
<g id="Ellipse 6.4">
<use xlink:href="#path6_stroke" transform="matrix(-1 1.22465e-16 -1.22465e-16 -1 1273 556.5)" fill="#FFFFFF"/>
</g>
</g>
</g>
<defs>
<path id="path0_stroke" d="M 0.363612 -0.3432C 0.174068 -0.544017 -0.142382 -0.553156 -0.3432 -0.363612C -0.544017 -0.174068 -0.553156 0.142382 -0.363612 0.3432L 0.363612 -0.3432ZM 4.24738 4.5L 4.61099 4.8432L 4.93492 4.5L 4.61099 4.1568L 4.24738 4.5ZM -0.363612 8.6568C -0.553156 8.85762 -0.544017 9.17407 -0.3432 9.36361C -0.142382 9.55316 0.174068 9.54402 0.363612 9.3432L -0.363612 8.6568ZM -0.363612 0.3432L 3.88377 4.8432L 4.61099 4.1568L 0.363612 -0.3432L -0.363612 0.3432ZM 3.88377 4.1568L -0.363612 8.6568L 0.363612 9.3432L 4.61099 4.8432L 3.88377 4.1568Z"/>
<path id="path1_stroke" d="M 0 -0.5C -0.276142 -0.5 -0.5 -0.276142 -0.5 0C -0.5 0.276142 -0.276142 0.5 0 0.5L 0 -0.5ZM 10.6184 0.5C 10.8946 0.5 11.1184 0.276142 11.1184 0C 11.1184 -0.276142 10.8946 -0.5 10.6184 -0.5L 10.6184 0.5ZM 0 0.5L 10.6184 0.5L 10.6184 -0.5L 0 -0.5L 0 0.5Z"/>
<path id="path2_fill" d="M 32 16C 32 24.8366 24.8366 32 16 32C 7.16344 32 0 24.8366 0 16C 0 7.16344 7.16344 0 16 0C 24.8366 0 32 7.16344 32 16Z"/>
<path id="path3_stroke_2x" d="M 31 16C 31 24.2843 24.2843 31 16 31L 16 33C 25.3888 33 33 25.3888 33 16L 31 16ZM 16 31C 7.71573 31 1 24.2843 1 16L -1 16C -1 25.3888 6.61116 33 16 33L 16 31ZM 1 16C 1 7.71573 7.71573 1 16 1L 16 -1C 6.61116 -1 -1 6.61116 -1 16L 1 16ZM 16 1C 24.2843 1 31 7.71573 31 16L 33 16C 33 6.61116 25.3888 -1 16 -1L 16 1Z"/>
<path id="path4_fill" d="M 26 13C 26 20.1797 20.1797 26 13 26C 5.8203 26 0 20.1797 0 13C 0 5.8203 5.8203 0 13 0C 20.1797 0 26 5.8203 26 13Z"/>
<path id="path5_stroke_2x" d="M 26.5 13C 26.5 12.824 26.4965 12.6439 26.4898 12.4696L 25.4905 12.5082C 25.4969 12.6729 25.5 12.8337 25.5 13L 26.5 13ZM 26.4076 11.4129C 26.3665 11.0628 26.3105 10.7071 26.2431 10.3659L 25.2621 10.5599C 25.3259 10.8821 25.3758 11.1989 25.4144 11.5293L 26.4076 11.4129ZM 25.9963 9.33434C 25.9008 8.99576 25.7895 8.65322 25.6689 8.32612L 24.7307 8.67234C 24.8447 8.98099 24.9439 9.28589 25.0337 9.60531L 25.9963 9.33434ZM 25.2626 7.3464C 25.1153 7.0276 24.9514 6.70681 24.7805 6.40215L 23.9085 6.89156C 24.0699 7.17907 24.2159 7.46477 24.3547 7.76564L 25.2626 7.3464ZM 24.2258 5.49884C 24.0307 5.20751 23.8187 4.91633 23.6021 4.64172L 22.8172 5.26133C 23.0219 5.52051 23.2108 5.78004 23.3949 6.05516L 24.2258 5.49884ZM 22.9134 3.8361C 22.6755 3.57909 22.4209 3.32447 22.1639 3.08664L 21.4849 3.8208C 21.7277 4.04524 21.9548 4.27226 22.1792 4.51508L 22.9134 3.8361ZM 21.3583 2.39794C 21.0837 2.18129 20.7925 1.96932 20.5012 1.77417L 19.9448 2.60513C 20.22 2.7892 20.4795 2.97813 20.7387 3.18285L 21.3583 2.39794ZM 19.5979 1.21946C 19.2932 1.04859 18.9724 0.884718 18.6536 0.737394L 18.2344 1.64527C 18.5352 1.7841 18.8209 1.93005 19.1084 2.09151L 19.5979 1.21946ZM 17.6739 0.331131C 17.3468 0.210517 17.0042 0.0991618 16.6657 0.0037443L 16.3947 0.966331C 16.7141 1.05615 17.019 1.15528 17.3277 1.26928L 17.6739 0.331131ZM 15.6341 -0.243051C 15.2929 -0.310468 14.9372 -0.366528 14.5871 -0.407644L 14.4707 0.585563C 14.8011 0.624172 15.1179 0.674114 15.4401 0.737937L 15.6341 -0.243051ZM 13.5304 -0.489763C 13.3561 -0.496481 13.176 -0.499976 13 -0.5L 13 0.5C 13.1663 0.499976 13.3271 0.503098 13.4918 0.509491L 13.5304 -0.489763ZM 13 -0.5C 12.824 -0.499976 12.6439 -0.496481 12.4696 -0.489763L 12.5082 0.509491C 12.6729 0.503098 12.8337 0.499976 13 0.5L 13 -0.5ZM 11.4129 -0.407644C 11.0628 -0.366529 10.7071 -0.310468 10.3659 -0.243051L 10.5599 0.737937C 10.8821 0.674114 11.1989 0.624172 11.5293 0.585563L 11.4129 -0.407644ZM 9.33434 0.00374423C 8.99576 0.0991617 8.65322 0.210517 8.32612 0.331131L 8.67234 1.26928C 8.98099 1.15528 9.28589 1.05615 9.60531 0.966331L 9.33434 0.00374423ZM 7.3464 0.737394C 7.0276 0.884718 6.70681 1.04859 6.40215 1.21946L 6.89156 2.09151C 7.17907 1.93005 7.46477 1.7841 7.76564 1.64527L 7.3464 0.737394ZM 5.49884 1.77417C 5.20751 1.96932 4.91633 2.18129 4.64172 2.39794L 5.26133 3.18285C 5.52051 2.97813 5.78004 2.7892 6.05516 2.60513L 5.49884 1.77417ZM 3.8361 3.08664C 3.57909 3.32447 3.32447 3.57909 3.08664 3.8361L 3.8208 4.51508C 4.04524 4.27226 4.27226 4.04524 4.51508 3.8208L 3.8361 3.08664ZM 2.39794 4.64172C 2.18129 4.91633 1.96932 5.20751 1.77417 5.49884L 2.60513 6.05516C 2.7892 5.78004 2.97813 5.52051 3.18285 5.26133L 2.39794 4.64172ZM 1.21946 6.40215C 1.04859 6.70681 0.884718 7.0276 0.737394 7.3464L 1.64527 7.76564C 1.7841 7.46477 1.93005 7.17907 2.09151 6.89156L 1.21946 6.40215ZM 0.331131 8.32612C 0.210517 8.65322 0.0991618 8.99575 0.0037443 9.33434L 0.966331 9.60531C 1.05615 9.28589 1.15528 8.98099 1.26928 8.67234L 0.331131 8.32612ZM -0.243051 10.3659C -0.310468 10.7071 -0.366528 11.0628 -0.407644 11.4129L 0.585563 11.5293C 0.624172 11.1989 0.674114 10.8821 0.737937 10.5599L -0.243051 10.3659ZM -0.489763 12.4696C -0.496481 12.6439 -0.499976 12.824 -0.5 13L 0.5 13C 0.499976 12.8337 0.503098 12.6729 0.509491 12.5082L -0.489763 12.4696ZM -0.5 13C -0.499976 13.176 -0.496481 13.3561 -0.489763 13.5304L 0.509491 13.4918C 0.503098 13.3271 0.499976 13.1663 0.5 13L -0.5 13ZM -0.407644 14.5871C -0.366529 14.9372 -0.310468 15.2929 -0.243051 15.6341L 0.737937 15.4401C 0.674114 15.1179 0.624172 14.8011 0.585563 14.4707L -0.407644 14.5871ZM 0.00374423 16.6657C 0.0991617 17.0042 0.210517 17.3468 0.331131 17.6739L 1.26928 17.3277C 1.15528 17.019 1.05615 16.7141 0.966331 16.3947L 0.00374423 16.6657ZM 0.737394 18.6536C 0.884718 18.9724 1.04859 19.2932 1.21946 19.5979L 2.09151 19.1084C 1.93005 18.8209 1.7841 18.5352 1.64527 18.2344L 0.737394 18.6536ZM 1.77417 20.5012C 1.96932 20.7925 2.18129 21.0837 2.39794 21.3583L 3.18285 20.7387C 2.97813 20.4795 2.7892 20.22 2.60513 19.9448L 1.77417 20.5012ZM 3.08664 22.1639C 3.32447 22.4209 3.57909 22.6755 3.8361 22.9134L 4.51508 22.1792C 4.27226 21.9548 4.04524 21.7277 3.8208 21.4849L 3.08664 22.1639ZM 4.64172 23.6021C 4.91633 23.8187 5.20751 24.0307 5.49884 24.2258L 6.05516 23.3949C 5.78004 23.2108 5.52051 23.0219 5.26133 22.8171L 4.64172 23.6021ZM 6.40215 24.7805C 6.70681 24.9514 7.0276 25.1153 7.3464 25.2626L 7.76564 24.3547C 7.46477 24.2159 7.17907 24.0699 6.89156 23.9085L 6.40215 24.7805ZM 8.32612 25.6689C 8.65322 25.7895 8.99575 25.9008 9.33434 25.9963L 9.60531 25.0337C 9.28589 24.9439 8.98099 24.8447 8.67234 24.7307L 8.32612 25.6689ZM 10.3659 26.2431C 10.7071 26.3105 11.0628 26.3665 11.4129 26.4076L 11.5293 25.4144C 11.1989 25.3758 10.8821 25.3259 10.5599 25.2621L 10.3659 26.2431ZM 12.4696 26.4898C 12.6439 26.4965 12.824 26.5 13 26.5L 13 25.5C 12.8337 25.5 12.6729 25.4969 12.5082 25.4905L 12.4696 26.4898ZM 13 26.5C 13.176 26.5 13.3561 26.4965 13.5304 26.4898L 13.4918 25.4905C 13.3271 25.4969 13.1663 25.5 13 25.5L 13 26.5ZM 14.5871 26.4076C 14.9372 26.3665 15.2929 26.3105 15.6341 26.2431L 15.4401 25.2621C 15.1179 25.3259 14.8011 25.3758 14.4707 25.4144L 14.5871 26.4076ZM 16.6657 25.9963C 17.0042 25.9008 17.3468 25.7895 17.6739 25.6689L 17.3277 24.7307C 17.019 24.8447 16.7141 24.9439 16.3947 25.0337L 16.6657 25.9963ZM 18.6536 25.2626C 18.9724 25.1153 19.2932 24.9514 19.5979 24.7805L 19.1084 23.9085C 18.8209 24.0699 18.5352 24.2159 18.2344 24.3547L 18.6536 25.2626ZM 20.5012 24.2258C 20.7925 24.0307 21.0837 23.8187 21.3583 23.6021L 20.7387 22.8172C 20.4795 23.0219 20.22 23.2108 19.9448 23.3949L 20.5012 24.2258ZM 22.1639 22.9134C 22.4209 22.6755 22.6755 22.4209 22.9134 22.1639L 22.1792 21.4849C 21.9548 21.7277 21.7277 21.9548 21.4849 22.1792L 22.1639 22.9134ZM 23.6021 21.3583C 23.8187 21.0837 24.0307 20.7925 24.2258 20.5012L 23.3949 19.9448C 23.2108 20.22 23.0219 20.4795 22.8171 20.7387L 23.6021 21.3583ZM 24.7805 19.5979C 24.9514 19.2932 25.1153 18.9724 25.2626 18.6536L 24.3547 18.2344C 24.2159 18.5352 24.0699 18.8209 23.9085 19.1084L 24.7805 19.5979ZM 25.6689 17.6739C 25.7895 17.3468 25.9008 17.0042 25.9963 16.6657L 25.0337 16.3947C 24.9439 16.7141 24.8447 17.019 24.7307 17.3277L 25.6689 17.6739ZM 26.2431 15.6341C 26.3105 15.2929 26.3665 14.9372 26.4076 14.5871L 25.4144 14.4707C 25.3758 14.8011 25.3259 15.1179 25.2621 15.4401L 26.2431 15.6341ZM 26.4898 13.5304C 26.4965 13.3561 26.5 13.176 26.5 13L 25.5 13C 25.5 13.1663 25.4969 13.3271 25.4905 13.4918L 26.4898 13.5304ZM 27 13C 27 12.8191 26.9963 12.6294 26.9894 12.4502L 24.9909 12.5275C 24.9971 12.6875 25 12.8385 25 13L 27 13ZM 26.9042 11.3547C 26.8619 10.9948 26.8028 10.6197 26.7335 10.2688L 24.7716 10.657C 24.8336 10.9695 24.8805 11.2669 24.9178 11.5874L 26.9042 11.3547ZM 26.4775 9.19885C 26.3793 8.85069 26.2619 8.48934 26.1379 8.15301L 24.2616 8.84546C 24.3723 9.14487 24.4654 9.43096 24.5524 9.7408L 26.4775 9.19885ZM 25.7165 7.13678C 25.565 6.80902 25.3921 6.47068 25.2166 6.15744L 23.4725 7.13627C 23.6292 7.4152 23.7662 7.68335 23.9008 7.97526L 25.7165 7.13678ZM 24.6413 5.22068C 24.4406 4.92124 24.2171 4.61423 23.9945 4.33192L 22.4247 5.57114C 22.6235 5.82261 22.8009 6.06631 22.9794 6.33332L 24.6413 5.22068ZM 23.2804 3.49661C 23.0359 3.2325 22.7675 2.96408 22.5034 2.71956L 21.1454 4.18788C 21.3812 4.40562 21.5944 4.61885 21.8121 4.85456L 23.2804 3.49661ZM 21.6681 2.00549C 21.3858 1.78287 21.0788 1.55938 20.7793 1.35868L 19.6667 3.02062C 19.9337 3.19914 20.1774 3.37655 20.4289 3.5753L 21.6681 2.00549ZM 19.8426 0.783436C 19.5293 0.60786 19.191 0.435028 18.8632 0.283456L 18.0247 2.09921C 18.3166 2.23379 18.5848 2.37078 18.8637 2.52754L 19.8426 0.783436ZM 17.847 -0.137945C 17.5107 -0.261863 17.1493 -0.379331 16.8011 -0.477549L 16.2592 1.44762C 16.569 1.53464 16.8551 1.62766 17.1545 1.73836L 17.847 -0.137945ZM 15.7312 -0.733545C 15.3803 -0.802759 15.0052 -0.861879 14.6453 -0.904248L 14.4126 1.08217C 14.7331 1.11952 15.0305 1.16641 15.343 1.22843L 15.7312 -0.733545ZM 13.5498 -0.989389C 13.3706 -0.996271 13.1809 -0.999953 13 -1L 13 1C 13.1615 0.999953 13.3125 1.00289 13.4725 1.00912L 13.5498 -0.989389ZM 13 -1C 12.8191 -0.999953 12.6294 -0.996271 12.4502 -0.989389L 12.5275 1.00912C 12.6875 1.00289 12.8385 0.999953 13 1L 13 -1ZM 11.3547 -0.904248C 10.9948 -0.861879 10.6197 -0.802759 10.2688 -0.733545L 10.657 1.22843C 10.9695 1.16641 11.2669 1.11952 11.5874 1.08217L 11.3547 -0.904248ZM 9.19885 -0.477549C 8.85069 -0.379331 8.48934 -0.261863 8.15301 -0.137945L 8.84546 1.73836C 9.14487 1.62766 9.43096 1.53464 9.7408 1.44762L 9.19885 -0.477549ZM 7.13678 0.283456C 6.80902 0.435028 6.47068 0.60786 6.15744 0.783436L 7.13627 2.52754C 7.4152 2.37078 7.68335 2.23379 7.97526 2.09921L 7.13678 0.283456ZM 5.22068 1.35868C 4.92124 1.55938 4.61423 1.78287 4.33192 2.00549L 5.57114 3.5753C 5.82261 3.37655 6.06631 3.19914 6.33332 3.02062L 5.22068 1.35868ZM 3.49661 2.71956C 3.2325 2.96408 2.96408 3.2325 2.71956 3.49661L 4.18788 4.85456C 4.40562 4.61885 4.61885 4.40562 4.85456 4.18788L 3.49661 2.71956ZM 2.00549 4.33192C 1.78287 4.61423 1.55938 4.92124 1.35868 5.22068L 3.02062 6.33332C 3.19914 6.06631 3.37655 5.82261 3.5753 5.57114L 2.00549 4.33192ZM 0.783436 6.15744C 0.60786 6.47068 0.435028 6.80902 0.283456 7.13678L 2.09921 7.97526C 2.23379 7.68335 2.37078 7.4152 2.52754 7.13627L 0.783436 6.15744ZM -0.137945 8.15301C -0.261863 8.48934 -0.379331 8.85069 -0.477549 9.19885L 1.44762 9.7408C 1.53464 9.43095 1.62766 9.14487 1.73836 8.84545L -0.137945 8.15301ZM -0.733545 10.2688C -0.802759 10.6197 -0.861879 10.9948 -0.904248 11.3547L 1.08217 11.5874C 1.11952 11.2669 1.16641 10.9695 1.22843 10.657L -0.733545 10.2688ZM -0.989389 12.4502C -0.996271 12.6294 -0.999953 12.8191 -1 13L 1 13C 0.999953 12.8385 1.00289 12.6875 1.00912 12.5275L -0.989389 12.4502ZM -1 13C -0.999953 13.1809 -0.996271 13.3706 -0.989389 13.5498L 1.00912 13.4725C 1.00289 13.3125 0.999953 13.1615 1 13L -1 13ZM -0.904248 14.6453C -0.861879 15.0052 -0.802759 15.3803 -0.733545 15.7312L 1.22843 15.343C 1.16641 15.0305 1.11952 14.7331 1.08217 14.4126L -0.904248 14.6453ZM -0.477549 16.8011C -0.379331 17.1493 -0.261863 17.5107 -0.137945 17.847L 1.73836 17.1545C 1.62766 16.8551 1.53464 16.569 1.44762 16.2592L -0.477549 16.8011ZM 0.283456 18.8632C 0.435028 19.191 0.60786 19.5293 0.783436 19.8426L 2.52754 18.8637C 2.37078 18.5848 2.23379 18.3166 2.09921 18.0247L 0.283456 18.8632ZM 1.35868 20.7793C 1.55938 21.0788 1.78287 21.3858 2.00549 21.6681L 3.5753 20.4289C 3.37655 20.1774 3.19914 19.9337 3.02062 19.6667L 1.35868 20.7793ZM 2.71956 22.5034C 2.96408 22.7675 3.2325 23.0359 3.49661 23.2804L 4.85456 21.8121C 4.61885 21.5944 4.40562 21.3812 4.18788 21.1454L 2.71956 22.5034ZM 4.33192 23.9945C 4.61423 24.2171 4.92124 24.4406 5.22068 24.6413L 6.33332 22.9794C 6.06631 22.8009 5.82261 22.6235 5.57114 22.4247L 4.33192 23.9945ZM 6.15744 25.2166C 6.47068 25.3921 6.80902 25.565 7.13678 25.7165L 7.97526 23.9008C 7.68335 23.7662 7.4152 23.6292 7.13627 23.4725L 6.15744 25.2166ZM 8.15301 26.1379C 8.48934 26.2619 8.85069 26.3793 9.19885 26.4775L 9.7408 24.5524C 9.43095 24.4654 9.14487 24.3723 8.84545 24.2616L 8.15301 26.1379ZM 10.2688 26.7335C 10.6197 26.8028 10.9948 26.8619 11.3547 26.9042L 11.5874 24.9178C 11.2669 24.8805 10.9695 24.8336 10.657 24.7716L 10.2688 26.7335ZM 12.4502 26.9894C 12.6294 26.9963 12.8191 27 13 27L 13 25C 12.8385 25 12.6875 24.9971 12.5275 24.9909L 12.4502 26.9894ZM 13 27C 13.1809 27 13.3706 26.9963 13.5498 26.9894L 13.4725 24.9909C 13.3125 24.9971 13.1615 25 13 25L 13 27ZM 14.6453 26.9042C 15.0052 26.8619 15.3803 26.8028 15.7312 26.7335L 15.343 24.7716C 15.0305 24.8336 14.7331 24.8805 14.4126 24.9178L 14.6453 26.9042ZM 16.8011 26.4775C 17.1493 26.3793 17.5107 26.2619 17.847 26.1379L 17.1545 24.2616C 16.8551 24.3723 16.569 24.4654 16.2592 24.5524L 16.8011 26.4775ZM 18.8632 25.7165C 19.191 25.565 19.5293 25.3921 19.8426 25.2166L 18.8637 23.4725C 18.5848 23.6292 18.3166 23.7662 18.0247 23.9008L 18.8632 25.7165ZM 20.7793 24.6413C 21.0788 24.4406 21.3858 24.2171 21.6681 23.9945L 20.4289 22.4247C 20.1774 22.6235 19.9337 22.8009 19.6667 22.9794L 20.7793 24.6413ZM 22.5034 23.2804C 22.7675 23.0359 23.0359 22.7675 23.2804 22.5034L 21.8121 21.1454C 21.5944 21.3812 21.3812 21.5944 21.1454 21.8121L 22.5034 23.2804ZM 23.9945 21.6681C 24.2171 21.3858 24.4406 21.0788 24.6413 20.7793L 22.9794 19.6667C 22.8009 19.9337 22.6235 20.1774 22.4247 20.4289L 23.9945 21.6681ZM 25.2166 19.8426C 25.3921 19.5293 25.565 19.191 25.7165 18.8632L 23.9008 18.0247C 23.7662 18.3166 23.6292 18.5848 23.4725 18.8637L 25.2166 19.8426ZM 26.1379 17.847C 26.2619 17.5107 26.3793 17.1493 26.4775 16.8011L 24.5524 16.2592C 24.4654 16.569 24.3723 16.8551 24.2616 17.1545L 26.1379 17.847ZM 26.7335 15.7312C 26.8028 15.3803 26.8619 15.0052 26.9042 14.6453L 24.9178 14.4126C 24.8805 14.7331 24.8336 15.0305 24.7716 15.343L 26.7335 15.7312ZM 26.9894 13.5498C 26.9963 13.3706 27 13.1809 27 13L 25 13C 25 13.1615 24.9971 13.3125 24.9909 13.4725L 26.9894 13.5498Z"/>
<path id="path6_stroke" d="M 12 12.5C 12 19.1274 6.62742 24.5 0 24.5L 0 25.5C 7.1797 25.5 13 19.6797 13 12.5L 12 12.5ZM 0 0.5C 6.62742 0.5 12 5.87258 12 12.5L 13 12.5C 13 5.3203 7.1797 -0.5 0 -0.5L 0 0.5Z"/>
</defs>
</svg>
